<mxfile host="app.diagrams.net" modified="2024-05-30T08:13:08.159Z" agent="Mozilla/5.0 (Windows NT 10.0; Win64; x64) AppleWebKit/537.36 (KHTML, like Gecko) Chrome/125.0.0.0 Safari/537.36" etag="fmYqwQC0par70OGVS6Bh" version="24.4.10" type="device">
  <diagram name="Page-1" id="PIxNPRrduu0qx2MQvTgq">
    <mxGraphModel dx="1050" dy="634" grid="1" gridSize="10" guides="1" tooltips="1" connect="1" arrows="1" fold="1" page="1" pageScale="1" pageWidth="827" pageHeight="1169" math="0" shadow="0">
      <root>
        <mxCell id="0" />
        <mxCell id="1" parent="0" />
        <mxCell id="Anjy2VstOC8faayw4QFB-1" value="" style="rounded=0;whiteSpace=wrap;html=1;" parent="1" vertex="1">
          <mxGeometry x="430" y="169" width="70" height="71" as="geometry" />
        </mxCell>
        <mxCell id="UCw_4kh61b6MZ3DJOtAU-5" value="AWS account" style="points=[[0,0],[0.25,0],[0.5,0],[0.75,0],[1,0],[1,0.25],[1,0.5],[1,0.75],[1,1],[0.75,1],[0.5,1],[0.25,1],[0,1],[0,0.75],[0,0.5],[0,0.25]];outlineConnect=0;html=1;whiteSpace=wrap;fontSize=12;fontStyle=0;container=1;pointerEvents=0;collapsible=0;recursiveResize=0;shape=mxgraph.aws4.group;grIcon=mxgraph.aws4.group_aws_cloud_alt;verticalAlign=top;align=left;spacingLeft=30;dashed=0;" parent="1" vertex="1">
          <mxGeometry x="160" y="120" width="250" height="160" as="geometry" />
        </mxCell>
        <mxCell id="UCw_4kh61b6MZ3DJOtAU-13" value="API Gateway" style="outlineConnect=0;dashed=0;verticalLabelPosition=bottom;verticalAlign=top;align=center;html=1;shape=mxgraph.aws3.api_gateway;fillColor=#D9A741;gradientColor=none;" parent="UCw_4kh61b6MZ3DJOtAU-5" vertex="1">
          <mxGeometry x="20" y="32.5" width="76.5" height="93" as="geometry" />
        </mxCell>
        <mxCell id="UCw_4kh61b6MZ3DJOtAU-9" value="API" style="sketch=0;pointerEvents=1;shadow=0;dashed=0;html=1;strokeColor=none;fillColor=#DF8C42;labelPosition=center;verticalLabelPosition=bottom;verticalAlign=top;align=center;outlineConnect=0;shape=mxgraph.veeam2.restful_api;" parent="1" vertex="1">
          <mxGeometry x="450" y="182" width="30" height="34" as="geometry" />
        </mxCell>
        <mxCell id="UCw_4kh61b6MZ3DJOtAU-4" value="Lambda" style="outlineConnect=0;dashed=0;verticalLabelPosition=bottom;verticalAlign=top;align=center;html=1;shape=mxgraph.aws3.lambda;fillColor=#F58534;gradientColor=none;" parent="1" vertex="1">
          <mxGeometry x="309" y="152.5" width="76.5" height="93" as="geometry" />
        </mxCell>
        <mxCell id="UCw_4kh61b6MZ3DJOtAU-1" style="edgeStyle=orthogonalEdgeStyle;rounded=0;orthogonalLoop=1;jettySize=auto;html=1;entryX=0;entryY=0.5;entryDx=0;entryDy=0;entryPerimeter=0;exitX=0.65;exitY=0.5;exitDx=0;exitDy=0;exitPerimeter=0;" parent="1" source="UCw_4kh61b6MZ3DJOtAU-13" target="UCw_4kh61b6MZ3DJOtAU-4" edge="1">
          <mxGeometry relative="1" as="geometry">
            <mxPoint x="258" y="199" as="sourcePoint" />
          </mxGeometry>
        </mxCell>
        <mxCell id="UCw_4kh61b6MZ3DJOtAU-3" style="edgeStyle=orthogonalEdgeStyle;rounded=0;orthogonalLoop=1;jettySize=auto;html=1;" parent="1" source="UCw_4kh61b6MZ3DJOtAU-4" target="UCw_4kh61b6MZ3DJOtAU-9" edge="1">
          <mxGeometry relative="1" as="geometry" />
        </mxCell>
      </root>
    </mxGraphModel>
  </diagram>
</mxfile>
